<?xml version="1.0" encoding="UTF-8"?>
<svg version="1.1" xmlns="http://www.w3.org/2000/svg" width="512" height="512">
<path d="M0 0 C12.28717616 10.03746672 21.90394358 21.78855186 29 36 C29 36.66 29 37.32 29 38 C29.54624023 37.83991455 30.09248047 37.6798291 30.65527344 37.51489258 C51.75250149 32.88202565 72.76684494 38.65573392 91 49 C91.85207031 49.48339844 92.70414062 49.96679688 93.58203125 50.46484375 C114.60634973 63.53401469 126.78276834 84.85648222 132.59375 108.40625 C133.11499011 111.7341676 133.09396424 114.94582652 133.0625 118.3125 C133.05347656 119.56675781 133.04445313 120.82101563 133.03515625 122.11328125 C133.01775391 123.54220703 133.01775391 123.54220703 133 125 C133.53625 125.0515625 134.0725 125.103125 134.625 125.15625 C140.70721093 126.03657 145.79625183 128.09568818 151.25 130.8125 C152.25933594 131.30943359 152.25933594 131.30943359 153.2890625 131.81640625 C166.50840786 138.60895525 174.99961719 150.59545121 179.5438385 164.54200745 C181.10678803 169.82460766 181.43203664 174.6585413 181.40405273 180.14038086 C181.41434761 181.57910301 181.41434761 181.57910301 181.42485046 183.04689026 C181.44300406 186.18636291 181.43929742 189.32533038 181.43359375 192.46484375 C181.43816089 194.66622579 181.44346805 196.86760641 181.44947815 199.06898499 C181.45838672 203.67096773 181.45601162 208.27277672 181.44604492 212.87475586 C181.43455592 218.74990847 181.45477776 224.62445996 181.48396206 230.49953365 C181.50237408 235.04223898 181.50202165 239.58480156 181.49632454 244.12753487 C181.49617195 246.29270839 181.50216424 248.45789198 181.51461601 250.62302971 C181.59049289 265.97737823 181.14563058 278.32467608 170 290 C157.50378352 301.92928038 143.9993005 301.55682006 127.70703125 301.390625 C125.54799425 301.38315383 123.38895041 301.37746504 121.22990417 301.37347412 C115.57946669 301.35828686 109.92944811 301.31906507 104.2791748 301.2746582 C98.50062728 301.23355582 92.72201131 301.21543126 86.94335938 301.1953125 C75.62869369 301.15256362 64.31444741 301.08227078 53 301 C53 311.56 53 322.12 53 333 C55.578125 332.9175 58.15625 332.835 60.8125 332.75 C72.5803656 332.63672883 81.38386916 335.77477113 90 344 C100.84743813 355.36295995 101 364.81105448 101 381 C50.51 381 0.02 381 -52 381 C-52.66 382.98 -53.32 384.96 -54 387 C-54.556875 388.010625 -55.11375 389.02125 -55.6875 390.0625 C-57.25032199 393.56024445 -57.14090781 394.40410305 -56 398 C-54.18727088 401.10235248 -52.07615273 404.00453439 -49.97460938 406.91601562 C-48.73828125 408.72265625 -48.73828125 408.72265625 -47 412 C-48.14924046 415.47531188 -50.43129416 417.67404695 -52.99072266 420.21777344 C-53.81142242 421.03832214 -54.63212219 421.85887085 -55.47769165 422.70428467 C-56.80744522 424.01855438 -56.80744522 424.01855438 -58.1640625 425.359375 C-59.07127045 426.26375305 -59.97847839 427.1681311 -60.91317749 428.09991455 C-63.31884419 430.49796458 -65.73045736 432.88994618 -68.14337158 435.28070068 C-70.60702344 437.72385171 -73.06498577 440.17271206 -75.5234375 442.62109375 C-80.34373573 447.41933788 -85.16969843 452.21182732 -90 457 C-91.57863815 456.23027429 -93.15502033 455.45592094 -94.73046875 454.6796875 C-95.60856201 454.24897949 -96.48665527 453.81827148 -97.39135742 453.37451172 C-100.48148128 451.7463042 -103.28889948 449.86661079 -106.11328125 447.8203125 C-108.77942726 446.66111858 -110.24279892 447.17201169 -113 448 C-114.79124029 448.744342 -116.56212393 449.53907511 -118.3125 450.375 C-130.39402174 456 -130.39402174 456 -135 456 C-135.11593506 456.56509277 -135.23187012 457.13018555 -135.35131836 457.71240234 C-135.87715296 460.26720691 -136.40727295 462.8211036 -136.9375 465.375 C-137.21110352 466.70917969 -137.21110352 466.70917969 -137.49023438 468.0703125 C-137.66748047 468.92109375 -137.84472656 469.771875 -138.02734375 470.6484375 C-138.18968506 471.43395996 -138.35202637 472.21948242 -138.51928711 473.02880859 C-139 475 -139 475 -140 477 C-160.46 477 -180.92 477 -202 477 C-206 462 -206 462 -207 456 C-207.82371094 455.9071875 -208.64742188 455.814375 -209.49609375 455.71875 C-213.68658767 454.8591615 -217.20113374 453.29548123 -221.0625 451.5 C-223.69033755 450.28489963 -226.32733853 449.11309006 -229 448 C-229.80695313 447.66097656 -230.61390625 447.32195312 -231.4453125 446.97265625 C-235.85702492 447.01987641 -239.16291535 449.63394825 -242.8125 451.9375 C-243.60076172 452.41896484 -244.38902344 452.90042969 -245.20117188 453.39648438 C-247.14257323 454.58485733 -249.07296927 455.78855454 -251 457 C-256.55439924 452.37508621 -261.68525669 447.44639036 -266.77734375 442.3203125 C-267.58869278 441.50754852 -268.40004181 440.69478455 -269.23597717 439.85739136 C-271.8055259 437.28228262 -274.37155968 434.7037038 -276.9375 432.125 C-278.68791929 430.36956054 -280.438568 428.61434983 -282.18945312 426.859375 C-286.46229302 422.57555918 -290.73225899 418.28889528 -295 414 C-294.23027429 412.42136185 -293.45592094 410.84497967 -292.6796875 409.26953125 C-292.24897949 408.39143799 -291.81827148 407.51334473 -291.37451172 406.60864258 C-289.7463042 403.51851872 -287.86661079 400.71110052 -285.8203125 397.88671875 C-284.66111858 395.22057274 -285.17201169 393.75720108 -286 391 C-286.744342 389.20875971 -287.53907511 387.43787607 -288.375 385.6875 C-294 373.60597826 -294 373.60597826 -294 369 C-294.56509277 368.88406494 -295.13018555 368.76812988 -295.71240234 368.64868164 C-298.26720691 368.12284704 -300.8211036 367.59272705 -303.375 367.0625 C-304.26445312 366.88009766 -305.15390625 366.69769531 -306.0703125 366.50976562 C-306.92109375 366.33251953 -307.771875 366.15527344 -308.6484375 365.97265625 C-309.43395996 365.81031494 -310.21948242 365.64797363 -311.02880859 365.48071289 C-313 365 -313 365 -315 364 C-315 343.54 -315 323.08 -315 302 C-308.4 300.35 -301.8 298.7 -295 297 C-291.6800818 290.9489485 -291.6800818 290.9489485 -289.90234375 284.8984375 C-289.21364031 281.70072274 -288.2249823 279.15779757 -286.5625 276.3125 C-284.78063365 272.53494335 -284.74513061 271.85266917 -286 268 C-287.8154388 264.89891257 -289.9236667 261.99571576 -292.02539062 259.08398438 C-293.26171875 257.27734375 -293.26171875 257.27734375 -295 254 C-293.85075954 250.52468812 -291.56870584 248.32595305 -289.00927734 245.78222656 C-288.18857758 244.96167786 -287.36787781 244.14112915 -286.52230835 243.29571533 C-285.19255478 241.98144562 -285.19255478 241.98144562 -283.8359375 240.640625 C-282.92872955 239.73624695 -282.02152161 238.8318689 -281.08682251 237.90008545 C-278.68115581 235.50203542 -276.26954264 233.11005382 -273.85662842 230.71929932 C-271.39297656 228.27614829 -268.93501423 225.82728794 -266.4765625 223.37890625 C-261.65626427 218.58066212 -256.83030157 213.78817268 -252 209 C-250.42136185 209.76972571 -248.84497967 210.54407906 -247.26953125 211.3203125 C-246.39143799 211.75102051 -245.51334473 212.18172852 -244.60864258 212.62548828 C-241.51851872 214.2536958 -238.71110052 216.13338921 -235.88671875 218.1796875 C-233.16221973 219.36425229 -231.83838874 218.87396715 -229 218 C-225.60519784 216.62257248 -222.2920034 215.07170186 -218.97070312 213.52734375 C-214.97032506 211.71485018 -211.41558094 210.49753025 -207 210 C-207.59867017 205.29227545 -209.67310082 201.55819704 -211.875 197.4375 C-220.54607807 180.3720804 -222.2969579 159.87994027 -216.37890625 141.4453125 C-208.3640374 121.41949289 -194.8160615 106.12626894 -174.765625 97.4765625 C-168.06237776 94.74929456 -161.27500108 92.77675989 -154 93 C-154.33 92.34 -154.66 91.68 -155 91 C-156.98895293 62.5977522 -152.10505722 37.75203575 -133.84375 15.35546875 C-100.0222526 -23.4082545 -41.4801297 -32.1118283 0 0 Z M-196 313 C-201.95684175 321.77226447 -202.80860965 329.46529681 -202 340 C-199.81622185 349.24674063 -194.84101899 355.43138233 -186.875 360.375 C-179.01458088 364.95412267 -169.95137226 365.40551976 -161.10546875 363.31640625 C-151.22194214 359.65752774 -145.6043373 353.36318257 -141 344 C-138.22533423 335.8609804 -139.13063297 325.85436893 -142.75 318.17578125 C-147.085993 310.62844344 -153.55502726 305.1971498 -161.890625 302.35546875 C-175.18218706 300.1155944 -186.96260706 302.71745515 -196 313 Z " fill="#010000" transform="translate(323,27)"/>
<path d="M0 0 C1.33958216 1.11755197 2.67370002 2.24171665 4 3.375 C5.010625 4.138125 6.02125 4.90125 7.0625 5.6875 C20.57704216 18.05186836 29.98848144 36.14561302 32 54.375 C32.11367704 57.71710508 32.0458336 61.02914756 32 64.375 C37.28 64.375 42.56 64.375 48 64.375 C47.6902353 61.4788504 47.37728812 58.58310424 47.0625 55.6875 C46.97548828 54.87087891 46.88847656 54.05425781 46.79882812 53.21289062 C46.36241272 49.22049781 45.88697624 45.29847148 45 41.375 C53.66543488 37.04228256 69.38999526 40.75842746 78 43.375 C98.34451046 50.47346506 112.60542831 63.8606789 122.3125 82.95703125 C129.01048001 97.41186311 128.96883509 112.8001081 127 128.375 C128.50626953 128.28798828 128.50626953 128.28798828 130.04296875 128.19921875 C142.18396754 127.71274313 152.64170807 129.81642014 162.29296875 137.78125 C169.63344177 144.63459781 175.18424221 153.15649209 176.3359375 163.34765625 C176.49988322 176.31576266 173.2091414 187.85176738 164.1171875 197.33984375 C154.78566483 205.9943736 144.5146377 208.66692659 132.0125885 208.68280029 C131.15440834 208.6915648 130.29622818 208.70032931 129.41204256 208.70935941 C126.56122507 208.73588456 123.71053079 208.74843536 120.85961914 208.76074219 C118.80557209 208.77656309 116.75153047 208.79310213 114.69749451 208.81030273 C107.97676819 208.86249361 101.25601839 208.89331846 94.53515625 208.921875 C92.21586024 208.93260192 89.89656435 208.94335695 87.5772686 208.95413971 C77.93058074 208.99734767 68.28389928 209.03482254 58.63713932 209.05738449 C44.83483727 209.08988645 31.03365872 209.15635153 17.23178011 209.27018619 C7.51177751 209.34761364 -2.20792462 209.38665222 -11.92822748 209.39722562 C-17.72821153 209.40452481 -23.52699381 209.42848119 -29.32664299 209.49343109 C-34.78140402 209.55365208 -40.23423779 209.56619859 -45.68926048 209.54266357 C-47.68632451 209.54222266 -49.68347886 209.5587885 -51.680233 209.59397125 C-67.55591109 209.85839546 -67.55591109 209.85839546 -72.46975899 206.07047272 C-74.93886119 203.62669819 -77.03547793 201.23405486 -79 198.375 C-83.85505233 200.21602186 -87.86478762 202.79470756 -92.09570312 205.8046875 C-95.03488713 207.73863579 -96.47325312 208.47786407 -99.98046875 207.79296875 C-101.47513672 207.09107422 -101.47513672 207.09107422 -103 206.375 C-104.66675781 205.68083984 -104.66675781 205.68083984 -106.3671875 204.97265625 C-107.52476562 204.46605469 -108.68234375 203.95945313 -109.875 203.4375 C-114.41987131 201.38114046 -114.41987131 201.38114046 -119.13964844 199.81176758 C-124.45765951 198.32521314 -124.45765951 198.32521314 -126.00732422 195.61010742 C-126.69164752 193.38901746 -127.13017892 191.23154638 -127.5 188.9375 C-127.6546875 188.17373047 -127.809375 187.40996094 -127.96875 186.62304688 C-128.65694079 183.09299679 -129 179.99969625 -129 176.375 C-148.14 176.375 -167.28 176.375 -187 176.375 C-193.23141411 159.23861118 -194.31493899 144.22418897 -186.64453125 127.40234375 C-179.4419983 113.36416291 -167.86656508 103.7244753 -153 98.375 C-147.48268621 96.76719383 -142.54743842 96.01977668 -136.8125 96.0625 C-136.08361572 96.06378906 -135.35473145 96.06507813 -134.60375977 96.06640625 C-127.72640093 96.18652168 -121.649683 97.54060469 -115 99.375 C-113.35 95.085 -111.7 90.795 -110 86.375 C-113.30998105 84.16834596 -115.82021436 83.59237905 -119.6875 82.75 C-120.86699219 82.48960938 -122.04648438 82.22921875 -123.26171875 81.9609375 C-124.16535156 81.76757812 -125.06898438 81.57421875 -126 81.375 C-131.51290428 62.0908169 -127.39578212 41.76876808 -118 24.375 C-115.55822657 20.50021668 -112.89478625 16.92036708 -110 13.375 C-109.50886719 12.73304687 -109.01773438 12.09109375 -108.51171875 11.4296875 C-97.34551911 -2.59883374 -79.15291005 -12.0502335 -61.671875 -15.23046875 C-39.43369577 -17.61989014 -18.08279301 -13.8404073 0 0 Z " fill="#E4E7EB" transform="translate(312,39.625)"/>
<path d="M0 0 C11.88 0 23.76 0 36 0 C37.98 8.415 37.98 8.415 40 17 C43.44913676 19.48843479 44.32069855 19.98843819 48.1875 20.5625 C49.80066769 20.94538358 51.41133418 21.33893569 53.01953125 21.7421875 C53.84146973 21.93264648 54.6634082 22.12310547 55.51025391 22.31933594 C59.68624233 23.46099663 63.49342339 25.29614907 67.375 27.1875 C68.08164795 27.52144775 68.7882959 27.85539551 69.51635742 28.19946289 C72.3174278 29.55110456 74.79862386 30.82661297 77.1640625 32.86328125 C77.76992187 33.23839844 78.37578125 33.61351562 79 34 C84.06984037 32.77994085 88.17542914 29.22729819 92.37890625 26.265625 C95 25 95 25 96.83862305 25.60791016 C99.66983644 27.43142521 101.83522868 29.6123825 104.203125 32.0078125 C104.6857782 32.49329559 105.1684314 32.97877869 105.66571045 33.47897339 C107.19858562 35.02299866 108.72434004 36.57384824 110.25 38.125 C111.29120361 39.17624009 112.33286541 40.22702657 113.375 41.27734375 C115.92199464 43.84633004 118.46265177 46.42148161 121 49 C119.09517119 53.99991368 116.36542648 57.93664635 113.265625 62.28125 C111.71303627 64.88744458 111.71303627 64.88744458 112.55859375 67.4140625 C113.03425781 68.26742187 113.50992188 69.12078125 114 70 C114.58394531 71.06992187 115.16789063 72.13984375 115.76953125 73.2421875 C116.09872559 73.82621338 116.42791992 74.41023926 116.76708984 75.01196289 C121.30700151 83.10259016 124.32237024 91.12645952 127 100 C127.66 101.98 128.32 103.96 129 106 C134.61 107.32 140.22 108.64 146 110 C146 121.88 146 133.76 146 146 C140.39 147.32 134.78 148.64 129 150 C126.28397335 154.2486659 125.40154903 156.14906249 124.4375 160.8125 C123.87373737 162.89088533 123.29945717 164.96644554 122.71484375 167.0390625 C122.44269043 168.05387695 122.17053711 169.06869141 121.89013672 170.11425781 C120.39978599 174.94583917 118.00355902 179.15375654 115.43530273 183.48168945 C113.53028628 186.7436512 113 188.06949095 113 192 C114.67028602 194.83876938 116.44390914 197.5279577 118.33203125 200.22265625 C119.4453125 201.90625 119.4453125 201.90625 121 205 C119.76820278 208.90137099 116.84362179 211.38446582 113.9921875 214.203125 C113.50670441 214.6857782 113.02122131 215.1684314 112.52102661 215.66571045 C110.97700134 217.19858562 109.42615176 218.72434004 107.875 220.25 C106.82375991 221.29120361 105.77297343 222.33286541 104.72265625 223.375 C102.15366996 225.92199464 99.57851839 228.46265177 97 231 C92.00008632 229.09517119 88.06335365 226.36542648 83.71875 223.265625 C81.11736073 221.71386579 81.11736073 221.71386579 78.62109375 222.55859375 C77.75613281 223.03425781 76.89117187 223.50992188 76 224 C74.84628906 224.58394531 73.69257813 225.16789063 72.50390625 225.76953125 C71.86952637 226.09872559 71.23514648 226.42791992 70.58154297 226.76708984 C62.56956069 230.91549469 54.58777229 234.19538576 46 237 C43.03 237.99 43.03 237.99 40 239 C38.68 244.61 37.36 250.22 36 256 C24.12 256 12.24 256 0 256 C-1.32 250.39 -2.64 244.78 -4 239 C-7.9225968 236.42917965 -9.36466877 235.74875473 -13.6875 235 C-15.57894135 234.53317828 -17.46699356 234.05242852 -19.3515625 233.55859375 C-20.29676758 233.32124512 -21.24197266 233.08389648 -22.21582031 232.83935547 C-27.41987238 231.27047341 -31.98872878 228.55419538 -36.66870117 225.84179688 C-40.16032538 223.84832255 -41.87397655 223 -46 223 C-48.83876938 224.67028602 -51.5279577 226.44390914 -54.22265625 228.33203125 C-55.90625 229.4453125 -55.90625 229.4453125 -59 231 C-62.90137099 229.76820278 -65.38446582 226.84362179 -68.203125 223.9921875 C-68.6857782 223.50670441 -69.1684314 223.02122131 -69.66571045 222.52102661 C-71.19858562 220.97700134 -72.72434004 219.42615176 -74.25 217.875 C-75.29120361 216.82375991 -76.33286541 215.77297343 -77.375 214.72265625 C-79.92199464 212.15366996 -82.46265177 209.57851839 -85 207 C-83.09517119 202.00008632 -80.36542648 198.06335365 -77.265625 193.71875 C-75.71386579 191.11736073 -75.71386579 191.11736073 -76.55859375 188.62109375 C-77.03425781 187.75613281 -77.50992188 186.89117187 -78 186 C-78.58394531 184.84628906 -79.16789062 183.69257813 -79.76953125 182.50390625 C-80.09872559 181.86952637 -80.42791992 181.23514648 -80.76708984 180.58154297 C-84.91549469 172.56956069 -88.19538576 164.58777229 -91 156 C-91.66 154.02 -92.32 152.04 -93 150 C-98.61 148.68 -104.22 147.36 -110 146 C-110 134.12 -110 122.24 -110 110 C-104.39 108.68 -98.78 107.36 -93 106 C-90.42917965 102.0774032 -89.74875473 100.63533123 -89 96.3125 C-88.53317828 94.42105865 -88.05242852 92.53300644 -87.55859375 90.6484375 C-87.32124512 89.70323242 -87.08389648 88.75802734 -86.83935547 87.78417969 C-85.27047341 82.58012762 -82.55419538 78.01127122 -79.84179688 73.33129883 C-77.84832255 69.83967462 -77 68.12602345 -77 64 C-78.67028602 61.16123062 -80.44390914 58.4720423 -82.33203125 55.77734375 C-83.4453125 54.09375 -83.4453125 54.09375 -85 51 C-83.76820278 47.09862901 -80.84362179 44.61553418 -77.9921875 41.796875 C-77.50670441 41.3142218 -77.02122131 40.8315686 -76.52102661 40.33428955 C-74.97700134 38.80141438 -73.42615176 37.27565996 -71.875 35.75 C-70.82375991 34.70879639 -69.77297343 33.66713459 -68.72265625 32.625 C-66.15366996 30.07800536 -63.57851839 27.53734823 -61 25 C-56.00008632 26.90482881 -52.06335365 29.63457352 -47.71875 32.734375 C-45.11255542 34.28696373 -45.11255542 34.28696373 -42.5859375 33.44140625 C-41.73257813 32.96574219 -40.87921875 32.49007812 -40 32 C-38.93007812 31.41605469 -37.86015625 30.83210938 -36.7578125 30.23046875 C-36.17378662 29.90127441 -35.58976074 29.57208008 -34.98803711 29.23291016 C-26.89740984 24.69299849 -18.87354048 21.67762976 -10 19 C-8.02 18.34 -6.04 17.68 -4 17 C-2.68 11.39 -1.36 5.78 0 0 Z M-7 108 C-12.95684175 116.77226447 -13.80860965 124.46529681 -13 135 C-10.81622185 144.24674063 -5.84101899 150.43138233 2.125 155.375 C9.98541912 159.95412267 19.04862774 160.40551976 27.89453125 158.31640625 C37.77805786 154.65752774 43.3956627 148.36318257 48 139 C50.77466577 130.8609804 49.86936703 120.85436893 46.25 113.17578125 C41.914007 105.62844344 35.44497274 100.1971498 27.109375 97.35546875 C13.81781294 95.1155944 2.03739294 97.71745515 -7 108 Z " fill="#B2DB7D" transform="translate(134,232)"/>
<path d="M0 0 C11.88 0 23.76 0 36 0 C37.98 8.415 37.98 8.415 40 17 C43.44913676 19.48843479 44.32069855 19.98843819 48.1875 20.5625 C49.80066769 20.94538358 51.41133418 21.33893569 53.01953125 21.7421875 C53.84146973 21.93264648 54.6634082 22.12310547 55.51025391 22.31933594 C59.68624233 23.46099663 63.49342339 25.29614907 67.375 27.1875 C68.08164795 27.52144775 68.7882959 27.85539551 69.51635742 28.19946289 C72.3174278 29.55110456 74.79862386 30.82661297 77.1640625 32.86328125 C77.76992187 33.23839844 78.37578125 33.61351562 79 34 C84.06984037 32.77994085 88.17542914 29.22729819 92.37890625 26.265625 C95 25 95 25 96.83862305 25.60791016 C99.66983644 27.43142521 101.83522868 29.6123825 104.203125 32.0078125 C104.6857782 32.49329559 105.1684314 32.97877869 105.66571045 33.47897339 C107.19858562 35.02299866 108.72434004 36.57384824 110.25 38.125 C111.29120361 39.17624009 112.33286541 40.22702657 113.375 41.27734375 C115.92199464 43.84633004 118.46265177 46.42148161 121 49 C119.09517119 53.99991368 116.36542648 57.93664635 113.265625 62.28125 C111.71303627 64.88744458 111.71303627 64.88744458 112.55859375 67.4140625 C113.03425781 68.26742187 113.50992188 69.12078125 114 70 C114.58394531 71.06992187 115.16789063 72.13984375 115.76953125 73.2421875 C116.09872559 73.82621338 116.42791992 74.41023926 116.76708984 75.01196289 C121.30700151 83.10259016 124.32237024 91.12645952 127 100 C127.66 101.98 128.32 103.96 129 106 C134.61 107.32 140.22 108.64 146 110 C146 121.88 146 133.76 146 146 C140.39 147.32 134.78 148.64 129 150 C126.28397335 154.2486659 125.40154903 156.14906249 124.4375 160.8125 C123.87373737 162.89088533 123.29945717 164.96644554 122.71484375 167.0390625 C122.44269043 168.05387695 122.17053711 169.06869141 121.89013672 170.11425781 C120.39978599 174.94583917 118.00355902 179.15375654 115.43530273 183.48168945 C113.53028628 186.7436512 113 188.06949095 113 192 C114.67028602 194.83876938 116.44390914 197.5279577 118.33203125 200.22265625 C119.4453125 201.90625 119.4453125 201.90625 121 205 C119.76820278 208.90137099 116.84362179 211.38446582 113.9921875 214.203125 C113.50670441 214.6857782 113.02122131 215.1684314 112.52102661 215.66571045 C110.97700134 217.19858562 109.42615176 218.72434004 107.875 220.25 C106.82375991 221.29120361 105.77297343 222.33286541 104.72265625 223.375 C102.15366996 225.92199464 99.57851839 228.46265177 97 231 C92.00008632 229.09517119 88.06335365 226.36542648 83.71875 223.265625 C81.11736073 221.71386579 81.11736073 221.71386579 78.62109375 222.55859375 C77.75613281 223.03425781 76.89117187 223.50992188 76 224 C74.84628906 224.58394531 73.69257813 225.16789063 72.50390625 225.76953125 C71.86952637 226.09872559 71.23514648 226.42791992 70.58154297 226.76708984 C62.56956069 230.91549469 54.58777229 234.19538576 46 237 C43.03 237.99 43.03 237.99 40 239 C38.68 244.61 37.36 250.22 36 256 C24.12 256 12.24 256 0 256 C-1.32 250.39 -2.64 244.78 -4 239 C-7.9225968 236.42917965 -9.36466877 235.74875473 -13.6875 235 C-15.57894135 234.53317828 -17.46699356 234.05242852 -19.3515625 233.55859375 C-20.29676758 233.32124512 -21.24197266 233.08389648 -22.21582031 232.83935547 C-27.41987238 231.27047341 -31.98872878 228.55419538 -36.66870117 225.84179688 C-40.16032538 223.84832255 -41.87397655 223 -46 223 C-48.83876938 224.67028602 -51.5279577 226.44390914 -54.22265625 228.33203125 C-55.90625 229.4453125 -55.90625 229.4453125 -59 231 C-62.90137099 229.76820278 -65.38446582 226.84362179 -68.203125 223.9921875 C-68.6857782 223.50670441 -69.1684314 223.02122131 -69.66571045 222.52102661 C-71.19858562 220.97700134 -72.72434004 219.42615176 -74.25 217.875 C-75.29120361 216.82375991 -76.33286541 215.77297343 -77.375 214.72265625 C-79.92199464 212.15366996 -82.46265177 209.57851839 -85 207 C-83.09517119 202.00008632 -80.36542648 198.06335365 -77.265625 193.71875 C-75.71386579 191.11736073 -75.71386579 191.11736073 -76.55859375 188.62109375 C-77.03425781 187.75613281 -77.50992188 186.89117187 -78 186 C-78.58394531 184.84628906 -79.16789062 183.69257813 -79.76953125 182.50390625 C-80.09872559 181.86952637 -80.42791992 181.23514648 -80.76708984 180.58154297 C-84.91549469 172.56956069 -88.19538576 164.58777229 -91 156 C-91.66 154.02 -92.32 152.04 -93 150 C-98.61 148.68 -104.22 147.36 -110 146 C-110 134.12 -110 122.24 -110 110 C-104.39 108.68 -98.78 107.36 -93 106 C-90.42917965 102.0774032 -89.74875473 100.63533123 -89 96.3125 C-88.53317828 94.42105865 -88.05242852 92.53300644 -87.55859375 90.6484375 C-87.32124512 89.70323242 -87.08389648 88.75802734 -86.83935547 87.78417969 C-85.27047341 82.58012762 -82.55419538 78.01127122 -79.84179688 73.33129883 C-77.84832255 69.83967462 -77 68.12602345 -77 64 C-78.67028602 61.16123062 -80.44390914 58.4720423 -82.33203125 55.77734375 C-83.4453125 54.09375 -83.4453125 54.09375 -85 51 C-83.76820278 47.09862901 -80.84362179 44.61553418 -77.9921875 41.796875 C-77.50670441 41.3142218 -77.02122131 40.8315686 -76.52102661 40.33428955 C-74.97700134 38.80141438 -73.42615176 37.27565996 -71.875 35.75 C-70.82375991 34.70879639 -69.77297343 33.66713459 -68.72265625 32.625 C-66.15366996 30.07800536 -63.57851839 27.53734823 -61 25 C-56.00008632 26.90482881 -52.06335365 29.63457352 -47.71875 32.734375 C-45.11255542 34.28696373 -45.11255542 34.28696373 -42.5859375 33.44140625 C-41.73257813 32.96574219 -40.87921875 32.49007812 -40 32 C-38.93007812 31.41605469 -37.86015625 30.83210938 -36.7578125 30.23046875 C-36.17378662 29.90127441 -35.58976074 29.57208008 -34.98803711 29.23291016 C-26.89740984 24.69299849 -18.87354048 21.67762976 -10 19 C-8.02 18.34 -6.04 17.68 -4 17 C-2.68 11.39 -1.36 5.78 0 0 Z M-52 62 C-52.73089844 62.71800781 -53.46179688 63.43601562 -54.21484375 64.17578125 C-71.03217772 81.85895816 -78.55739198 106.2380344 -78.3515625 130.23217773 C-77.65725945 156.79168036 -66.6814137 179.58050588 -48 198 C-47.26136719 198.74894531 -46.52273437 199.49789062 -45.76171875 200.26953125 C-28.27153606 216.9691972 -3.8290464 224.55964205 19.9465332 224.421875 C46.63733935 223.68870385 69.32149429 212.65127757 88 194 C88.73992187 193.27167969 89.47984375 192.54335938 90.2421875 191.79296875 C107.76986924 173.41277331 114.63303425 147.39001484 114.2734375 122.62890625 C113.38923392 97.07017001 101.65336511 75.90810342 84 58 C83.28199219 57.26910156 82.56398437 56.53820312 81.82421875 55.78515625 C63.19889477 38.07180671 37.75303763 31.3616937 12.62890625 31.7265625 C-12.92982999 32.61076608 -34.09189658 44.34663489 -52 62 Z " fill="#FBC428" transform="translate(134,232)"/>
<path d="M0 0 C0.12435721 6.2255133 0.21469608 12.45029064 0.2746582 18.67675781 C0.29967575 20.79114389 0.33370092 22.90544459 0.37719727 25.01953125 C0.43841332 28.07313192 0.46633792 31.12558139 0.48828125 34.1796875 C0.51408768 35.11239471 0.5398941 36.04510193 0.56648254 37.006073 C0.56968829 44.64728862 -1.54633245 51.15825077 -6.72660828 56.92062378 C-12.91219246 62.83702111 -20.19381974 64.45766989 -28.47888184 64.36076355 C-29.70194999 64.36460846 -29.70194999 64.36460846 -30.94972658 64.36853105 C-33.66135189 64.37344282 -36.37241102 64.3570195 -39.08398438 64.34057617 C-41.03587837 64.33972933 -42.98777331 64.34020615 -44.93966675 64.34190369 C-50.22423267 64.34276285 -55.50859346 64.32514974 -60.7931118 64.30418181 C-66.32108896 64.28540194 -71.84907106 64.28366354 -77.3770752 64.28010559 C-87.83873076 64.27078899 -98.30029205 64.24618036 -108.76190615 64.21605712 C-120.67479006 64.18250118 -132.58767853 64.16602409 -144.50059795 64.15097082 C-169.00045086 64.11963052 -193.50022014 64.06687745 -218 64 C-219.06326843 61.94855272 -220.09994057 59.88330392 -221.125 57.8125 C-221.70507812 56.66394531 -222.28515625 55.51539063 -222.8828125 54.33203125 C-224 51 -224 51 -223.30566406 48.27368164 C-221.22482132 44.65010488 -218.94309788 41.16591167 -216.5703125 37.72851562 C-214.44564765 34.60579248 -214.44564765 34.60579248 -214.3828125 30.984375 C-216.77145832 28.05337964 -219.40170278 25.43154106 -222.125 22.8125 C-224.10501556 20.89365197 -226.06039158 18.96036875 -228 17 C-228 16.67 -228 16.34 -228 16 C-227.01492462 15.99853344 -226.02984924 15.99706688 -225.0149231 15.99555588 C-200.99173677 15.95888138 -176.968689 15.89932793 -152.94561768 15.81609726 C-141.32800073 15.77637061 -129.71045089 15.74394579 -118.09277344 15.72900391 C-107.96104154 15.7159543 -97.82945771 15.68890546 -87.69780922 15.64538693 C-82.33839262 15.62284643 -76.97915814 15.60708486 -71.61968994 15.60811615 C-66.56349246 15.60886716 -61.50769643 15.59074086 -56.45160294 15.55883217 C-54.60712646 15.55039237 -52.76260464 15.54854241 -50.91811752 15.55419731 C-33.13486645 15.60140801 -17.53627279 13.24203518 -3.23046875 1.78125 C-1 0 -1 0 0 0 Z " fill="#CBD0D8" transform="translate(488,248)"/>
<path d="M0 0 C14.83045523 12.68997716 27.1182552 29.40526086 32.03125 48.59375 C32.30839844 49.63144531 32.58554688 50.66914063 32.87109375 51.73828125 C38.99851816 77.80101274 33.69053473 103.99399146 20.12255859 126.86572266 C17.20311381 131.48850345 13.71008929 135.5666557 10.03125 139.59375 C9.33386719 140.37234375 8.63648438 141.1509375 7.91796875 141.953125 C-4.9616375 155.60974589 -21.84083828 164.28891178 -39.96875 168.59375 C-40.82210937 168.81933594 -41.67546875 169.04492188 -42.5546875 169.27734375 C-65.60117555 174.54822824 -89.98506436 169.26359273 -110.20703125 157.75 C-117.91187654 152.87326265 -124.49976168 146.97071857 -130.96875 140.59375 C-131.69964844 139.87574219 -132.43054688 139.15773438 -133.18359375 138.41796875 C-150.04630632 120.68707691 -157.54730356 95.70466996 -157.38842773 71.64477539 C-156.59450626 43.37759703 -143.98126441 20.89309719 -123.84375 1.53125 C-89.24457818 -29.12198011 -35.56582897 -29.13702023 0 0 Z M-111.96875 12.59375 C-112.73445313 13.18542969 -113.50015625 13.77710938 -114.2890625 14.38671875 C-129.06781564 26.46204144 -138.82431209 45.74926469 -140.96875 64.59375 C-142.74468535 86.46983911 -137.87307944 107.57514981 -123.57421875 124.71484375 C-123.04441406 125.33488281 -122.51460937 125.95492187 -121.96875 126.59375 C-121.205625 127.604375 -120.4425 128.615 -119.65625 129.65625 C-109.04607779 141.25341497 -95.12466732 148.89182098 -79.96875 152.59375 C-79.28941406 152.76817627 -78.61007813 152.94260254 -77.91015625 153.12231445 C-57.35191868 158.12532632 -35.87091592 153.41831544 -17.96875 142.59375 C-14.81500262 140.41682703 -11.88020912 138.08150405 -8.96875 135.59375 C-7.4528125 134.4490625 -7.4528125 134.4490625 -5.90625 133.28125 C5.93924401 122.44388314 12.67966518 108.78355171 17.03125 93.59375 C17.39992187 92.33304687 17.76859375 91.07234375 18.1484375 89.7734375 C22.65163521 71.26946993 17.88233162 51.01270348 9.03125 34.59375 C6.59859718 30.70819648 3.93537756 27.13678563 1.03125 23.59375 C0.48984375 22.88992188 -0.0515625 22.18609375 -0.609375 21.4609375 C-12.46040706 6.79097063 -31.50006564 -2.48668888 -49.96875 -5.40625 C-72.81472253 -7.61906868 -94.1766613 -2.04351147 -111.96875 12.59375 Z " fill="#030301" transform="translate(212.96875,285.40625)"/>
<path d="M0 0 C9.9 0 19.8 0 30 0 C30.56847656 2.55105469 31.13695312 5.10210937 31.72265625 7.73046875 C36.97980353 31.27805759 36.97980353 31.27805759 42.5625 54.75 C45.31234422 65.96887843 47.87709991 77.22290424 50.375 88.5 C50.5504837 89.29192749 50.72596741 90.08385498 50.9067688 90.89978027 C51.4051251 93.15168868 51.90222887 95.40386745 52.3984375 97.65625 C52.54602005 98.32573669 52.6936026 98.99522339 52.84565735 99.68499756 C53.59867211 103.11689336 54.32442345 106.55200246 55 110 C51.33552568 111.64800856 48.18796534 112.33580973 44.1875 112.625 C43.21167969 112.69976562 42.23585938 112.77453125 41.23046875 112.8515625 C40.49441406 112.90054688 39.75835937 112.94953125 39 113 C32 86.97709924 32 86.97709924 32 80 C20.78 80 9.56 80 -2 80 C-2.33 83.3 -2.66 86.6 -3 90 C-3.33492058 91.75906754 -3.70862514 93.51227646 -4.15625 95.24609375 C-4.37410156 96.10267578 -4.59195313 96.95925781 -4.81640625 97.84179688 C-5.04199219 98.69837891 -5.26757812 99.55496094 -5.5 100.4375 C-5.72558594 101.32115234 -5.95117188 102.20480469 -6.18359375 103.11523438 C-7.04053935 106.44920912 -7.9110534 109.73316021 -9 113 C-10.72985242 112.88487847 -12.45888751 112.75744323 -14.1875 112.625 C-15.15042969 112.55539063 -16.11335937 112.48578125 -17.10546875 112.4140625 C-20.02401912 111.99656407 -22.29525672 111.13611177 -25 110 C-22.51095143 98.72037668 -19.97170851 87.45378679 -17.36553955 76.20065308 C-16.79288081 73.72777977 -16.22127931 71.25466391 -15.64990234 68.78149414 C-13.81437613 60.8379166 -11.97581617 52.8950426 -10.13621521 44.95240784 C-9.32622405 41.45420402 -8.5170954 37.95580101 -7.70809937 34.45736694 C-7.14197159 32.01084283 -6.57455122 29.564621 -6.00708008 27.1184082 C-5.6530903 25.58806894 -5.29916462 24.05771485 -4.9453125 22.52734375 C-4.7925032 21.87033478 -4.63969391 21.21332581 -4.48225403 20.53640747 C-2.90594583 13.70649079 -1.46939067 6.85715646 0 0 Z " fill="#030303" transform="translate(217,120)"/>
<path d="M0 0 C45.7032455 0 45.7032455 0 55.5390625 9.33203125 C62.12311832 16.84912171 64.54908468 24.60845469 64.37890625 34.546875 C63.54082221 42.18467186 60.23342976 49.82070853 54.9453125 55.46875 C42.52183244 65.24787487 32.26583094 64 16 64 C16 79.84 16 95.68 16 112 C10.72 112 5.44 112 0 112 C0 75.04 0 38.08 0 0 Z " fill="#010101" transform="translate(288,120)"/>
<path d="M0 0 C9.16656701 7.41927418 16.83304433 17.74847497 18.7890625 29.63671875 C20.15554238 44.9463544 17.60813026 58.44430049 7.87890625 70.6640625 C-1.06224547 80.38334401 -12.84790581 86.29806263 -26.05078125 87.2109375 C-41.26887602 87.67588517 -52.70806225 82.71672756 -63.70703125 72.3828125 C-73.56937238 62.13404233 -77.36849816 49.39763625 -77.2109375 35.40625 C-76.42485498 22.71247301 -70.62806192 11.64941027 -61.42578125 3.00390625 C-43.49375463 -11.80950704 -19.31931603 -13.37055303 0 0 Z M-54 19 C-59.95684175 27.77226447 -60.80860965 35.46529681 -60 46 C-57.81622185 55.24674063 -52.84101899 61.43138233 -44.875 66.375 C-37.01458088 70.95412267 -27.95137226 71.40551976 -19.10546875 69.31640625 C-9.22194214 65.65752774 -3.6043373 59.36318257 1 50 C3.77466577 41.8609804 2.86936703 31.85436893 -0.75 24.17578125 C-5.085993 16.62844344 -11.55502726 11.1971498 -19.890625 8.35546875 C-33.18218706 6.1155944 -44.96260706 8.71745515 -54 19 Z " fill="#010101" transform="translate(181,321)"/>
<path d="M0 0 C15.84 0 31.68 0 48 0 C48 5.28 48 10.56 48 16 C42.72 16 37.44 16 32 16 C32 42.4 32 68.8 32 96 C37.28 96 42.56 96 48 96 C48 101.28 48 106.56 48 112 C32.16 112 16.32 112 0 112 C0 106.72 0 101.44 0 96 C5.28 96 10.56 96 16 96 C16 69.6 16 43.2 16 16 C10.72 16 5.44 16 0 16 C0 10.72 0 5.44 0 0 Z " fill="#000000" transform="translate(360,120)"/>
<path d="M0 0 C23.1 0 46.2 0 70 0 C70 10.56 70 21.12 70 32 C48.88 32 27.76 32 6 32 C6 21.77 6 11.54 6 1 C4.02 1 2.04 1 0 1 C0 0.67 0 0.34 0 0 Z " fill="#A9B1BC" transform="translate(290,328)"/>
<path d="M0 0 C11.85710665 -0.06960594 23.71416443 -0.12286515 35.57143402 -0.15543652 C41.07764418 -0.17107159 46.58371422 -0.19227058 52.08984375 -0.22631836 C57.4066556 -0.25898857 62.72333292 -0.27686925 68.04023743 -0.28463173 C70.06555803 -0.29016147 72.09087153 -0.30095969 74.11613464 -0.31719017 C76.95974459 -0.33906616 79.8028034 -0.34196266 82.64648438 -0.34057617 C83.47799011 -0.351362 84.30949585 -0.36214783 85.16619873 -0.3732605 C92.53555775 -0.33455052 98.83363374 1.34313671 104.375 6.5 C105.34566406 7.38171875 105.34566406 7.38171875 106.3359375 8.28125 C108.85180126 10.87979473 110 12.31912637 110 16 C71.72 16 33.44 16 -6 16 C-6 15.67 -6 15.34 -6 15 C-4.02 15 -2.04 15 0 15 C0 10.05 0 5.1 0 0 Z " fill="#959EA9" transform="translate(296,376)"/>
<path d="M0 0 C2.83623173 2.16568493 5.60901527 4.34182787 8 7 C8 7.66 8 8.32 8 9 C7.34 9 6.68 9 6 9 C5.505 10.485 5.505 10.485 5 12 C2.20100034 15.10159421 -0.22637281 17.25399339 -4 19 C-4.928125 18.113125 -5.85625 17.22625 -6.8125 16.3125 C-16.46234526 8.08289406 -28.5877292 5.48424411 -40.9921875 5.75390625 C-55.7059035 6.95775574 -66.28683437 14.33869456 -76 25 C-79.56305823 23.71455342 -82.32844233 22.20155344 -85.3125 19.875 C-86.00988281 19.33617188 -86.70726562 18.79734375 -87.42578125 18.2421875 C-87.94527344 17.83226563 -88.46476563 17.42234375 -89 17 C-85.34904974 6.21740078 -74.2835681 -0.17366608 -64.6875 -5.21484375 C-62.48701916 -6.25614272 -60.28200933 -7.1530687 -58 -8 C-56.84371094 -8.44859375 -56.84371094 -8.44859375 -55.6640625 -8.90625 C-37.29708657 -15.00973739 -15.80191239 -10.72457661 0 0 Z " fill="#040404" transform="translate(301,51)"/>
<path d="M0 0 C3.17625 -0.061875 6.3525 -0.12375 9.625 -0.1875 C11.1092749 -0.22846802 11.1092749 -0.22846802 12.62353516 -0.27026367 C18.62931488 -0.32671582 23.06376757 0.25905144 27.64453125 4.53515625 C31.99761012 10.227644 32.789538 13.87222635 32 21 C29.78757561 25.42484878 27.05200384 28.19476657 23 31 C20.11734851 31.96088383 18.32337729 32.11670941 15.33203125 32.09765625 C14.52741455 32.09515869 13.72279785 32.09266113 12.89379883 32.09008789 C11.36855591 32.07643188 11.36855591 32.07643188 9.8125 32.0625 C4.9553125 32.0315625 4.9553125 32.0315625 0 32 C0 21.44 0 10.88 0 0 Z " fill="#E3E6EA" transform="translate(304,136)"/>
<path d="M0 0 C1.32 0 2.64 0 4 0 C4.94286708 3.89179317 5.88479169 7.78381324 6.82592773 11.67602539 C7.29949567 13.63374049 7.77376143 15.59128673 8.24804688 17.54882812 C8.86695964 20.10917252 9.48300467 22.67021182 10.09619141 25.23193359 C10.68950755 27.7055266 11.29050094 30.17729326 11.89990234 32.64697266 C12.17398926 33.78054199 12.44807617 34.91411133 12.73046875 36.08203125 C13.09821411 37.58020386 13.09821411 37.58020386 13.47338867 39.10864258 C14 42 14 42 14 48 C6.08 48 -1.84 48 -10 48 C-8.875 37.875 -8.875 37.875 -8.06030273 34.39819336 C-7.79013588 33.22799904 -7.79013588 33.22799904 -7.51451111 32.03416443 C-7.32280838 31.2275386 -7.13110565 30.42091278 -6.93359375 29.58984375 C-6.63606956 28.31047691 -6.63606956 28.31047691 -6.33253479 27.00526428 C-5.70570221 24.3148499 -5.07173372 21.62617815 -4.4375 18.9375 C-4.00798809 17.09972043 -3.57894723 15.2618307 -3.15039062 13.42382812 C-2.10569697 8.94792793 -1.05460574 4.47357463 0 0 Z " fill="#E2E5E9" transform="translate(230,136)"/>
<path d="M0 0 C1.73030291 0.28484846 3.45920714 0.57819938 5.1875 0.875 C6.15042969 1.03742188 7.11335937 1.19984375 8.10546875 1.3671875 C11 2 11 2 16 4 C15.34 8.62 14.68 13.24 14 18 C8.72 18 3.44 18 -2 18 C-2.18020062 11.51277762 -1.8422675 6.21765282 0 0 Z " fill="#060606" transform="translate(202,86)"/>
<path d="M0 0 C5.28 0 10.56 0 16 0 C16 5.28 16 10.56 16 16 C10.72 16 5.44 16 0 16 C0 10.72 0 5.44 0 0 Z " fill="#000000" transform="translate(456,280)"/>
<path d="M0 0 C5.28 0 10.56 0 16 0 C16 5.28 16 10.56 16 16 C10.72 16 5.44 16 0 16 C0 10.72 0 5.44 0 0 Z " fill="#000000" transform="translate(424,280)"/>
<path d="M0 0 C5.28 0 10.56 0 16 0 C16 5.28 16 10.56 16 16 C10.72 16 5.44 16 0 16 C0 10.72 0 5.44 0 0 Z " fill="#000000" transform="translate(392,280)"/>
</svg>
